<svg
className="animate-spin h-10 w-10 mx-auto "
viewBox="0 0 100 100"
xmlns="http://www.w3.org/2000/svg"
>
<g transform="scale(1)" transform-origin="50 50">
  <g>
    <path
      fill="#d65a62"
      d="M50 27.5c-2.2 0-4-5.8-4-4v-12c0-2.2 1.8-4 4-4s4 5.8 4 4v12c0 2.2-1.8 4-4 4z"
      style="fill: rgb(73, 169, 66)"
    ></path>
    <path
      fill="#ea7c60"
      d="M34.1 34.1c-1.6 1.6-4.1 1.6-5.7 0l-8.5-8.5c-1.6-1.6-1.6-4.1 0-5.7 1.6-1.6 4.1-1.6 5.7 0l8.5 8.5c1.6 1.6 1.6 4.1 0 5.7z"
      style="fill: rgb(73, 23, 109)"
    ></path>
    <path
      fill="#f0af6b"
      d="M27.5 50c0 2.2-1.8 4-4 4h-12c-2.2 0-4-1.8-4-4s1.8-4 4-4h12c2.2 0 4 1.8 4 4z"
      style="fill: rgb(0, 121, 193)"
    ></path>
    <path
      fill="#a8b980"
      d="M34.1 65.9c1.6 1.6 1.6 4.1 0 5.7l-8.5 8.5c-1.6 1.6-4.1 1.6-5.7 0-1.6-1.6-1.6-4.1 0-5.7l8.5-8.5c1.6-1.6 4.1-1.6 5.7 0z"
      style="fill: rgb(0, 160, 175)"
    ></path>
    <path
      fill="#d65a62"
      d="M50 72.5c2.2 0 4 1.8 4 4v12c0 2.2-1.8 4-4 4s-4-1.8-4-4v-12c0-2.2 1.8-4 4-4z"
      style="fill: rgb(73, 169, 66)"
    ></path>
    <path
      fill="#ea7c60"
      d="M65.9 65.9c1.6-1.6 4.1-1.6 5.7 0l8.5 8.5c1.6 1.6 1.6 4.1 0 5.7-1.6 1.6-4.1 1.6-5.7 0l-8.5-8.5c-1.6-1.6-1.6-4.1 0-5.7z"
      style="fill: rgb(73, 23, 109)"
    ></path>
    <path
      fill="#f0af6b"
      d="M72.5 50c0-2.2 1.8-4 4-4h12c2.2 0 4 1.8 4 4s-1.8 4-4 4h-12c-2.2 0-4-1.8-4-4z"
      style="fill: rgb(0, 121, 193)"
    ></path>
    <path
      fill="#a8b980"
      d="M65.9 34.1c-1.6-1.6-1.6-4.1 0-5.7l8.5-8.5c1.6-1.6 4.1-1.6 5.7 0 1.6 1.6 1.6 4.1 0 5.7l-8.5 8.5c-1.6 1.6-4.1 1.6-5.7 0z"
      style="fill: rgb(0, 160, 175)"
    ></path>
  </g>
</g>
</svg>